<svg id="visual" viewBox="0 0 900 1080" width="900" height="1080" xmlns="http://www.w3.org/2000/svg" xmlns:xlink="http://www.w3.org/1999/xlink" version="1.1"><rect x="0" y="0" width="900" height="1080" fill="#f5f5f5"></rect><defs><linearGradient id="grad1_0" x1="0%" y1="0%" x2="100%" y2="100%"><stop offset="30%" stop-color="#4facf7" stop-opacity="1"></stop><stop offset="70%" stop-color="#4facf7" stop-opacity="1"></stop></linearGradient></defs><defs><linearGradient id="grad1_1" x1="0%" y1="0%" x2="100%" y2="100%"><stop offset="30%" stop-color="#4facf7" stop-opacity="1"></stop><stop offset="70%" stop-color="#94c4f7" stop-opacity="1"></stop></linearGradient></defs><defs><linearGradient id="grad1_2" x1="0%" y1="0%" x2="100%" y2="100%"><stop offset="30%" stop-color="#c7dcf6" stop-opacity="1"></stop><stop offset="70%" stop-color="#94c4f7" stop-opacity="1"></stop></linearGradient></defs><defs><linearGradient id="grad1_3" x1="0%" y1="0%" x2="100%" y2="100%"><stop offset="30%" stop-color="#c7dcf6" stop-opacity="1"></stop><stop offset="70%" stop-color="#f5f5f5" stop-opacity="1"></stop></linearGradient></defs><defs><linearGradient id="grad2_0" x1="0%" y1="0%" x2="100%" y2="100%"><stop offset="30%" stop-color="#4facf7" stop-opacity="1"></stop><stop offset="70%" stop-color="#4facf7" stop-opacity="1"></stop></linearGradient></defs><defs><linearGradient id="grad2_1" x1="0%" y1="0%" x2="100%" y2="100%"><stop offset="30%" stop-color="#94c4f7" stop-opacity="1"></stop><stop offset="70%" stop-color="#4facf7" stop-opacity="1"></stop></linearGradient></defs><defs><linearGradient id="grad2_2" x1="0%" y1="0%" x2="100%" y2="100%"><stop offset="30%" stop-color="#94c4f7" stop-opacity="1"></stop><stop offset="70%" stop-color="#c7dcf6" stop-opacity="1"></stop></linearGradient></defs><defs><linearGradient id="grad2_3" x1="0%" y1="0%" x2="100%" y2="100%"><stop offset="30%" stop-color="#f5f5f5" stop-opacity="1"></stop><stop offset="70%" stop-color="#c7dcf6" stop-opacity="1"></stop></linearGradient></defs><g transform="translate(900, 0)"><path d="M0 562.3C-54.6 538.3 -109.1 514.3 -160.4 493.6C-211.7 472.9 -259.7 455.6 -313.9 432C-368.1 408.4 -428.5 378.6 -454.9 330.5C-481.4 282.4 -473.8 216 -486 157.9C-498.2 99.8 -530.3 49.9 -562.3 0L0 0Z" fill="#dfe8f6"></path><path d="M0 421.8C-40.9 403.7 -81.8 385.7 -120.3 370.2C-158.7 354.7 -194.7 341.7 -235.4 324C-276.1 306.3 -321.4 284 -341.2 247.9C-361 211.8 -355.3 162 -364.5 118.4C-373.7 74.8 -397.7 37.4 -421.8 0L0 0Z" fill="#afd0f7"></path><path d="M0 281.2C-27.3 269.2 -54.6 257.1 -80.2 246.8C-105.8 236.5 -129.8 227.8 -156.9 216C-184 204.2 -214.3 189.3 -227.5 165.3C-240.7 141.2 -236.9 108 -243 79C-249.1 49.9 -265.1 24.9 -281.2 0L0 0Z" fill="#76b8f7"></path><path d="M0 140.6C-13.6 134.6 -27.3 128.6 -40.1 123.4C-52.9 118.2 -64.9 113.9 -78.5 108C-92 102.1 -107.1 94.7 -113.7 82.6C-120.3 70.6 -118.4 54 -121.5 39.5C-124.6 24.9 -132.6 12.5 -140.6 0L0 0Z" fill="#4facf7"></path></g><g transform="translate(0, 1080)"><path d="M0 -562.3C59.6 -556.7 119.2 -551 172.7 -531.6C226.3 -512.3 273.7 -479.2 323.9 -445.8C374.1 -412.4 427.1 -378.7 454.9 -330.5C482.8 -282.4 485.6 -219.7 499.3 -162.2C513 -104.7 537.7 -52.4 562.3 0L0 0Z" fill="#dfe8f6"></path><path d="M0 -421.8C44.7 -417.5 89.4 -413.3 129.6 -398.7C169.7 -384.2 205.3 -359.4 242.9 -334.3C280.6 -309.3 320.3 -284 341.2 -247.9C362.1 -211.8 364.2 -164.8 374.5 -121.7C384.8 -78.5 403.3 -39.3 421.8 0L0 0Z" fill="#afd0f7"></path><path d="M0 -281.2C29.8 -278.3 59.6 -275.5 86.4 -265.8C113.1 -256.1 136.8 -239.6 161.9 -222.9C187 -206.2 213.5 -189.3 227.5 -165.3C241.4 -141.2 242.8 -109.9 249.7 -81.1C256.5 -52.4 268.8 -26.2 281.2 0L0 0Z" fill="#76b8f7"></path><path d="M0 -140.6C14.9 -139.2 29.8 -137.8 43.2 -132.9C56.6 -128.1 68.4 -119.8 81 -111.4C93.5 -103.1 106.8 -94.7 113.7 -82.6C120.7 -70.6 121.4 -54.9 124.8 -40.6C128.3 -26.2 134.4 -13.1 140.6 0L0 0Z" fill="#4facf7"></path></g></svg>