<svg id="visual" viewBox="0 0 450 900" width="450" height="900" xmlns="http://www.w3.org/2000/svg" xmlns:xlink="http://www.w3.org/1999/xlink" version="1.1"><rect x="0" y="0" width="450" height="900" fill="#001122"></rect><defs><linearGradient id="grad1_0" x1="0%" y1="0%" x2="100%" y2="100%"><stop offset="30%" stop-color="#4facf7" stop-opacity="1"></stop><stop offset="70%" stop-color="#4facf7" stop-opacity="1"></stop></linearGradient></defs><defs><linearGradient id="grad1_1" x1="0%" y1="0%" x2="100%" y2="100%"><stop offset="30%" stop-color="#4facf7" stop-opacity="1"></stop><stop offset="70%" stop-color="#3b81bc" stop-opacity="1"></stop></linearGradient></defs><defs><linearGradient id="grad1_2" x1="0%" y1="0%" x2="100%" y2="100%"><stop offset="30%" stop-color="#275984" stop-opacity="1"></stop><stop offset="70%" stop-color="#3b81bc" stop-opacity="1"></stop></linearGradient></defs><defs><linearGradient id="grad1_3" x1="0%" y1="0%" x2="100%" y2="100%"><stop offset="30%" stop-color="#275984" stop-opacity="1"></stop><stop offset="70%" stop-color="#133350" stop-opacity="1"></stop></linearGradient></defs><defs><linearGradient id="grad1_4" x1="0%" y1="0%" x2="100%" y2="100%"><stop offset="30%" stop-color="#001122" stop-opacity="1"></stop><stop offset="70%" stop-color="#133350" stop-opacity="1"></stop></linearGradient></defs><defs><linearGradient id="grad2_0" x1="0%" y1="0%" x2="100%" y2="100%"><stop offset="30%" stop-color="#4facf7" stop-opacity="1"></stop><stop offset="70%" stop-color="#4facf7" stop-opacity="1"></stop></linearGradient></defs><defs><linearGradient id="grad2_1" x1="0%" y1="0%" x2="100%" y2="100%"><stop offset="30%" stop-color="#3b81bc" stop-opacity="1"></stop><stop offset="70%" stop-color="#4facf7" stop-opacity="1"></stop></linearGradient></defs><defs><linearGradient id="grad2_2" x1="0%" y1="0%" x2="100%" y2="100%"><stop offset="30%" stop-color="#3b81bc" stop-opacity="1"></stop><stop offset="70%" stop-color="#275984" stop-opacity="1"></stop></linearGradient></defs><defs><linearGradient id="grad2_3" x1="0%" y1="0%" x2="100%" y2="100%"><stop offset="30%" stop-color="#133350" stop-opacity="1"></stop><stop offset="70%" stop-color="#275984" stop-opacity="1"></stop></linearGradient></defs><defs><linearGradient id="grad2_4" x1="0%" y1="0%" x2="100%" y2="100%"><stop offset="30%" stop-color="#133350" stop-opacity="1"></stop><stop offset="70%" stop-color="#001122" stop-opacity="1"></stop></linearGradient></defs><g transform="translate(450, 0)"><path d="M0 332C-40 319.5 -80.1 307.1 -121.3 292.9C-162.6 278.6 -205 262.6 -234.1 234.1C-263.1 205.5 -278.7 164.3 -297.5 123.2C-316.2 82.1 -338.1 41.1 -360 0L0 0Z" fill="#092238"></path><path d="M0 265.6C-32 255.6 -64.1 245.7 -97 234.3C-130 222.9 -164 210.1 -187.2 187.2C-210.5 164.4 -223 131.5 -238 98.6C-253 65.7 -270.5 32.8 -288 0L0 0Z" fill="#1d456a"></path><path d="M0 199.2C-24 191.7 -48 184.3 -72.8 175.7C-97.5 167.2 -123 157.6 -140.4 140.4C-157.9 123.3 -167.2 98.6 -178.5 73.9C-189.7 49.3 -202.9 24.6 -216 0L0 0Z" fill="#316ca0"></path><path d="M0 132.8C-16 127.8 -32 122.8 -48.5 117.1C-65 111.5 -82 105.1 -93.6 93.6C-105.2 82.2 -111.5 65.7 -119 49.3C-126.5 32.8 -135.2 16.4 -144 0L0 0Z" fill="#4596d9"></path><path d="M0 66.4C-8 63.9 -16 61.4 -24.3 58.6C-32.5 55.7 -41 52.5 -46.8 46.8C-52.6 41.1 -55.7 32.9 -59.5 24.6C-63.2 16.4 -67.6 8.2 -72 0L0 0Z" fill="#4facf7"></path></g><g transform="translate(0, 900)"><path d="M0 -345C51.9 -350.6 103.8 -356.1 137.8 -332.6C171.8 -309.1 187.9 -256.4 221.3 -221.3C254.8 -186.2 305.5 -168.7 325.2 -134.7C344.9 -100.7 333.4 -50.4 322 0L0 0Z" fill="#092238"></path><path d="M0 -276C41.5 -280.5 83 -284.9 110.2 -266.1C137.4 -247.2 150.3 -205.1 177.1 -177.1C203.8 -149 244.4 -134.9 260.2 -107.8C275.9 -80.6 266.7 -40.3 257.6 0L0 0Z" fill="#1d456a"></path><path d="M0 -207C31.1 -210.3 62.3 -213.7 82.7 -199.6C103.1 -185.4 112.7 -153.9 132.8 -132.8C152.9 -111.7 183.3 -101.2 195.1 -80.8C206.9 -60.4 200.1 -30.2 193.2 0L0 0Z" fill="#316ca0"></path><path d="M0 -138C20.8 -140.2 41.5 -142.5 55.1 -133C68.7 -123.6 75.2 -102.6 88.5 -88.5C101.9 -74.5 122.2 -67.5 130.1 -53.9C137.9 -40.3 133.4 -20.1 128.8 0L0 0Z" fill="#4596d9"></path><path d="M0 -69C10.4 -70.1 20.8 -71.2 27.6 -66.5C34.4 -61.8 37.6 -51.3 44.3 -44.3C51 -37.2 61.1 -33.7 65 -26.9C69 -20.1 66.7 -10.1 64.4 0L0 0Z" fill="#4facf7"></path></g></svg>