<svg id="visual" viewBox="0 0 1440 900" width="1440" height="900" xmlns="http://www.w3.org/2000/svg" xmlns:xlink="http://www.w3.org/1999/xlink" version="1.1"><rect x="0" y="0" width="1440" height="900" fill="#001122"></rect><defs><linearGradient id="grad1_0" x1="37.5%" y1="0%" x2="100%" y2="100%"><stop offset="17.999999999999996%" stop-color="#4facf7" stop-opacity="1"></stop><stop offset="82%" stop-color="#4facf7" stop-opacity="1"></stop></linearGradient></defs><defs><linearGradient id="grad1_1" x1="37.5%" y1="0%" x2="100%" y2="100%"><stop offset="17.999999999999996%" stop-color="#4facf7" stop-opacity="1"></stop><stop offset="82%" stop-color="#3473a9" stop-opacity="1"></stop></linearGradient></defs><defs><linearGradient id="grad1_2" x1="37.5%" y1="0%" x2="100%" y2="100%"><stop offset="17.999999999999996%" stop-color="#193f61" stop-opacity="1"></stop><stop offset="82%" stop-color="#3473a9" stop-opacity="1"></stop></linearGradient></defs><defs><linearGradient id="grad1_3" x1="37.5%" y1="0%" x2="100%" y2="100%"><stop offset="17.999999999999996%" stop-color="#193f61" stop-opacity="1"></stop><stop offset="82%" stop-color="#001122" stop-opacity="1"></stop></linearGradient></defs><defs><linearGradient id="grad2_0" x1="0%" y1="0%" x2="62.5%" y2="100%"><stop offset="17.999999999999996%" stop-color="#4facf7" stop-opacity="1"></stop><stop offset="82%" stop-color="#4facf7" stop-opacity="1"></stop></linearGradient></defs><defs><linearGradient id="grad2_1" x1="0%" y1="0%" x2="62.5%" y2="100%"><stop offset="17.999999999999996%" stop-color="#3473a9" stop-opacity="1"></stop><stop offset="82%" stop-color="#4facf7" stop-opacity="1"></stop></linearGradient></defs><defs><linearGradient id="grad2_2" x1="0%" y1="0%" x2="62.5%" y2="100%"><stop offset="17.999999999999996%" stop-color="#3473a9" stop-opacity="1"></stop><stop offset="82%" stop-color="#193f61" stop-opacity="1"></stop></linearGradient></defs><defs><linearGradient id="grad2_3" x1="0%" y1="0%" x2="62.5%" y2="100%"><stop offset="17.999999999999996%" stop-color="#001122" stop-opacity="1"></stop><stop offset="82%" stop-color="#193f61" stop-opacity="1"></stop></linearGradient></defs><g transform="translate(1440, 0)"><path d="M0 679.2C-70.5 670 -141.1 660.8 -207.4 638.2C-273.6 615.5 -335.6 579.5 -389.7 536.4C-443.8 493.2 -490.2 443 -534.8 388.5C-579.4 334.1 -622.2 275.4 -646 209.9C-669.8 144.4 -674.5 72.2 -679.2 0L0 0Z" fill="#0c2840"></path><path d="M0 509.4C-52.9 502.5 -105.8 495.6 -155.5 478.6C-205.2 461.6 -251.7 434.6 -292.3 402.3C-332.9 369.9 -367.6 332.2 -401.1 291.4C-434.5 250.5 -466.7 206.5 -484.5 157.4C-502.3 108.3 -505.9 54.2 -509.4 0L0 0Z" fill="#275984"></path><path d="M0 339.6C-35.3 335 -70.5 330.4 -103.7 319.1C-136.8 307.8 -167.8 289.8 -194.9 268.2C-221.9 246.6 -245.1 221.5 -267.4 194.3C-289.7 167 -311.1 137.7 -323 104.9C-334.9 72.2 -337.3 36.1 -339.6 0L0 0Z" fill="#428fcf"></path><path d="M0 169.8C-17.6 167.5 -35.3 165.2 -51.8 159.5C-68.4 153.9 -83.9 144.9 -97.4 134.1C-111 123.3 -122.5 110.7 -133.7 97.1C-144.8 83.5 -155.6 68.8 -161.5 52.5C-167.4 36.1 -168.6 18.1 -169.8 0L0 0Z" fill="#4facf7"></path></g><g transform="translate(0, 900)"><path d="M0 -679.2C71.3 -662.3 142.6 -645.4 198.7 -611.5C254.8 -577.6 295.8 -526.8 359.1 -494.3C422.5 -461.8 508.2 -447.7 549.5 -399.3C590.9 -350.8 587.8 -267.9 602 -195.6C616.2 -123.3 647.7 -61.7 679.2 0L0 0Z" fill="#0c2840"></path><path d="M0 -509.4C53.5 -496.7 106.9 -484.1 149 -458.6C191.1 -433.2 221.8 -395.1 269.4 -370.7C316.9 -346.4 381.1 -335.8 412.1 -299.4C443.1 -263.1 440.8 -200.9 451.5 -146.7C462.2 -92.5 485.8 -46.3 509.4 0L0 0Z" fill="#275984"></path><path d="M0 -339.6C35.6 -331.2 71.3 -322.7 99.3 -305.8C127.4 -288.8 147.9 -263.4 179.6 -247.2C211.2 -230.9 254.1 -223.9 274.8 -199.6C295.4 -175.4 293.9 -133.9 301 -97.8C308.1 -61.7 323.9 -30.8 339.6 0L0 0Z" fill="#428fcf"></path><path d="M0 -169.8C17.8 -165.6 35.6 -161.4 49.7 -152.9C63.7 -144.4 73.9 -131.7 89.8 -123.6C105.6 -115.5 127 -111.9 137.4 -99.8C147.7 -87.7 146.9 -67 150.5 -48.9C154.1 -30.8 161.9 -15.4 169.8 0L0 0Z" fill="#4facf7"></path></g></svg>