<svg id="visual" viewBox="0 0 2560 1440" width="2560" height="1440" xmlns="http://www.w3.org/2000/svg" xmlns:xlink="http://www.w3.org/1999/xlink" version="1.1"><rect x="0" y="0" width="2560" height="1440" fill="#f5f5f5"></rect><defs><linearGradient id="grad1_0" x1="43.8%" y1="0%" x2="100%" y2="100%"><stop offset="14.444444444444446%" stop-color="#4facf7" stop-opacity="1"></stop><stop offset="85.55555555555554%" stop-color="#4facf7" stop-opacity="1"></stop></linearGradient></defs><defs><linearGradient id="grad1_1" x1="43.8%" y1="0%" x2="100%" y2="100%"><stop offset="14.444444444444446%" stop-color="#4facf7" stop-opacity="1"></stop><stop offset="85.55555555555554%" stop-color="#94c4f7" stop-opacity="1"></stop></linearGradient></defs><defs><linearGradient id="grad1_2" x1="43.8%" y1="0%" x2="100%" y2="100%"><stop offset="14.444444444444446%" stop-color="#c7dcf6" stop-opacity="1"></stop><stop offset="85.55555555555554%" stop-color="#94c4f7" stop-opacity="1"></stop></linearGradient></defs><defs><linearGradient id="grad1_3" x1="43.8%" y1="0%" x2="100%" y2="100%"><stop offset="14.444444444444446%" stop-color="#c7dcf6" stop-opacity="1"></stop><stop offset="85.55555555555554%" stop-color="#f5f5f5" stop-opacity="1"></stop></linearGradient></defs><defs><linearGradient id="grad2_0" x1="0%" y1="0%" x2="56.3%" y2="100%"><stop offset="14.444444444444446%" stop-color="#4facf7" stop-opacity="1"></stop><stop offset="85.55555555555554%" stop-color="#4facf7" stop-opacity="1"></stop></linearGradient></defs><defs><linearGradient id="grad2_1" x1="0%" y1="0%" x2="56.3%" y2="100%"><stop offset="14.444444444444446%" stop-color="#94c4f7" stop-opacity="1"></stop><stop offset="85.55555555555554%" stop-color="#4facf7" stop-opacity="1"></stop></linearGradient></defs><defs><linearGradient id="grad2_2" x1="0%" y1="0%" x2="56.3%" y2="100%"><stop offset="14.444444444444446%" stop-color="#94c4f7" stop-opacity="1"></stop><stop offset="85.55555555555554%" stop-color="#c7dcf6" stop-opacity="1"></stop></linearGradient></defs><defs><linearGradient id="grad2_3" x1="0%" y1="0%" x2="56.3%" y2="100%"><stop offset="14.444444444444446%" stop-color="#f5f5f5" stop-opacity="1"></stop><stop offset="85.55555555555554%" stop-color="#c7dcf6" stop-opacity="1"></stop></linearGradient></defs><g transform="translate(2560, 0)"><path d="M0 1152C-125.1 1146.8 -250.2 1141.7 -356 1095.6C-461.8 1049.6 -548.2 962.6 -646 889.1C-743.7 815.6 -852.7 755.5 -912.6 663C-972.4 570.5 -983.1 445.6 -1014.8 329.7C-1046.5 213.8 -1099.2 106.9 -1152 0L0 0Z" fill="#dfe8f6"></path><path d="M0 864C-93.8 860.1 -187.7 856.3 -267 821.7C-346.3 787.2 -411.2 722 -484.5 666.8C-557.8 611.7 -639.5 566.6 -684.4 497.3C-729.3 427.9 -737.3 334.2 -761.1 247.3C-784.9 160.4 -824.4 80.2 -864 0L0 0Z" fill="#afd0f7"></path><path d="M0 576C-62.6 573.4 -125.1 570.8 -178 547.8C-230.9 524.8 -274.1 481.3 -323 444.6C-371.9 407.8 -426.4 377.8 -456.3 331.5C-486.2 285.3 -491.5 222.8 -507.4 164.9C-523.2 106.9 -549.6 53.5 -576 0L0 0Z" fill="#76b8f7"></path><path d="M0 288C-31.3 286.7 -62.6 285.4 -89 273.9C-115.4 262.4 -137.1 240.7 -161.5 222.3C-185.9 203.9 -213.2 188.9 -228.1 165.8C-243.1 142.6 -245.8 111.4 -253.7 82.4C-261.6 53.5 -274.8 26.7 -288 0L0 0Z" fill="#4facf7"></path></g><g transform="translate(0, 1440)"><path d="M0 -1152C110.2 -1095 220.3 -1038.1 321.4 -989.1C422.4 -940.1 514.3 -899.1 620.7 -854.3C727.1 -809.5 848 -761 932 -677.1C1016 -593.3 1063.2 -474.1 1093.7 -355.4C1124.2 -236.6 1138.1 -118.3 1152 0L0 0Z" fill="#dfe8f6"></path><path d="M0 -864C82.6 -821.3 165.3 -778.6 241 -741.8C316.8 -705.1 385.7 -674.3 465.5 -640.7C545.3 -607.2 636 -570.7 699 -507.8C762 -445 797.4 -355.6 820.3 -266.5C843.2 -177.5 853.6 -88.7 864 0L0 0Z" fill="#afd0f7"></path><path d="M0 -576C55.1 -547.5 110.2 -519 160.7 -494.5C211.2 -470.1 257.2 -449.6 310.4 -427.2C363.5 -404.8 424 -380.5 466 -338.6C508 -296.6 531.6 -237.1 546.9 -177.7C562.1 -118.3 569.1 -59.2 576 0L0 0Z" fill="#76b8f7"></path><path d="M0 -288C27.5 -273.8 55.1 -259.5 80.3 -247.3C105.6 -235 128.6 -224.8 155.2 -213.6C181.8 -202.4 212 -190.2 233 -169.3C254 -148.3 265.8 -118.5 273.4 -88.8C281.1 -59.2 284.5 -29.6 288 0L0 0Z" fill="#4facf7"></path></g></svg>