<svg id="visual" viewBox="0 0 450 900" width="450" height="900" xmlns="http://www.w3.org/2000/svg" xmlns:xlink="http://www.w3.org/1999/xlink" version="1.1"><rect x="0" y="0" width="450" height="900" fill="#f5f5f5"></rect><defs><linearGradient id="grad1_0" x1="0%" y1="0%" x2="100%" y2="100%"><stop offset="30%" stop-color="#4facf7" stop-opacity="1"></stop><stop offset="70%" stop-color="#4facf7" stop-opacity="1"></stop></linearGradient></defs><defs><linearGradient id="grad1_1" x1="0%" y1="0%" x2="100%" y2="100%"><stop offset="30%" stop-color="#4facf7" stop-opacity="1"></stop><stop offset="70%" stop-color="#94c4f7" stop-opacity="1"></stop></linearGradient></defs><defs><linearGradient id="grad1_2" x1="0%" y1="0%" x2="100%" y2="100%"><stop offset="30%" stop-color="#c7dcf6" stop-opacity="1"></stop><stop offset="70%" stop-color="#94c4f7" stop-opacity="1"></stop></linearGradient></defs><defs><linearGradient id="grad1_3" x1="0%" y1="0%" x2="100%" y2="100%"><stop offset="30%" stop-color="#c7dcf6" stop-opacity="1"></stop><stop offset="70%" stop-color="#f5f5f5" stop-opacity="1"></stop></linearGradient></defs><defs><linearGradient id="grad2_0" x1="0%" y1="0%" x2="100%" y2="100%"><stop offset="30%" stop-color="#4facf7" stop-opacity="1"></stop><stop offset="70%" stop-color="#4facf7" stop-opacity="1"></stop></linearGradient></defs><defs><linearGradient id="grad2_1" x1="0%" y1="0%" x2="100%" y2="100%"><stop offset="30%" stop-color="#94c4f7" stop-opacity="1"></stop><stop offset="70%" stop-color="#4facf7" stop-opacity="1"></stop></linearGradient></defs><defs><linearGradient id="grad2_2" x1="0%" y1="0%" x2="100%" y2="100%"><stop offset="30%" stop-color="#94c4f7" stop-opacity="1"></stop><stop offset="70%" stop-color="#c7dcf6" stop-opacity="1"></stop></linearGradient></defs><defs><linearGradient id="grad2_3" x1="0%" y1="0%" x2="100%" y2="100%"><stop offset="30%" stop-color="#f5f5f5" stop-opacity="1"></stop><stop offset="70%" stop-color="#c7dcf6" stop-opacity="1"></stop></linearGradient></defs><g transform="translate(450, 0)"><path d="M0 360C-36.8 352.2 -73.5 344.4 -108.2 332.9C-142.8 321.3 -175.3 305.9 -208.1 286.4C-240.8 266.9 -273.8 243.2 -291.2 211.6C-308.7 180 -310.7 140.4 -319.6 103.8C-328.4 67.2 -344.2 33.6 -360 0L0 0Z" fill="#dfe8f6"></path><path d="M0 270C-27.6 264.2 -55.1 258.3 -81.1 249.7C-107.1 241 -131.5 229.4 -156.1 214.8C-180.6 200.2 -205.3 182.4 -218.4 158.7C-231.5 135 -233 105.3 -239.7 77.9C-246.3 50.4 -258.2 25.2 -270 0L0 0Z" fill="#afd0f7"></path><path d="M0 180C-18.4 176.1 -36.8 172.2 -54.1 166.4C-71.4 160.6 -87.7 153 -104 143.2C-120.4 133.4 -136.9 121.6 -145.6 105.8C-154.4 90 -155.3 70.2 -159.8 51.9C-164.2 33.6 -172.1 16.8 -180 0L0 0Z" fill="#76b8f7"></path><path d="M0 90C-9.2 88.1 -18.4 86.1 -27 83.2C-35.7 80.3 -43.8 76.5 -52 71.6C-60.2 66.7 -68.4 60.8 -72.8 52.9C-77.2 45 -77.7 35.1 -79.9 26C-82.1 16.8 -86.1 8.4 -90 0L0 0Z" fill="#4facf7"></path></g><g transform="translate(0, 900)"><path d="M0 -360C38.7 -358.3 77.3 -356.7 111.2 -342.4C145.2 -328.1 174.3 -301.2 199.8 -275.1C225.4 -248.9 247.2 -223.6 271 -196.9C294.8 -170.2 320.6 -142.1 335.7 -109.1C350.9 -76 355.4 -38 360 0L0 0Z" fill="#dfe8f6"></path><path d="M0 -270C29 -268.8 58 -267.5 83.4 -256.8C108.9 -246.1 130.7 -225.9 149.9 -206.3C169 -186.7 185.4 -167.7 203.3 -147.7C221.1 -127.7 240.4 -106.6 251.8 -81.8C263.2 -57 266.6 -28.5 270 0L0 0Z" fill="#afd0f7"></path><path d="M0 -180C19.3 -179.2 38.7 -178.3 55.6 -171.2C72.6 -164 87.2 -150.6 99.9 -137.5C112.7 -124.5 123.6 -111.8 135.5 -98.5C147.4 -85.1 160.3 -71.1 167.9 -54.5C175.4 -38 177.7 -19 180 0L0 0Z" fill="#76b8f7"></path><path d="M0 -90C9.7 -89.6 19.3 -89.2 27.8 -85.6C36.3 -82 43.6 -75.3 50 -68.8C56.3 -62.2 61.8 -55.9 67.8 -49.2C73.7 -42.6 80.1 -35.5 83.9 -27.3C87.7 -19 88.9 -9.5 90 0L0 0Z" fill="#4facf7"></path></g></svg>