<svg id="visual" viewBox="0 0 1920 1080" width="1920" height="1080" xmlns="http://www.w3.org/2000/svg" xmlns:xlink="http://www.w3.org/1999/xlink" version="1.1"><rect x="0" y="0" width="1920" height="1080" fill="#f5f5f5"></rect><defs><linearGradient id="grad1_0" x1="43.8%" y1="0%" x2="100%" y2="100%"><stop offset="14.444444444444446%" stop-color="#4facf7" stop-opacity="1"></stop><stop offset="85.55555555555554%" stop-color="#4facf7" stop-opacity="1"></stop></linearGradient></defs><defs><linearGradient id="grad1_1" x1="43.8%" y1="0%" x2="100%" y2="100%"><stop offset="14.444444444444446%" stop-color="#4facf7" stop-opacity="1"></stop><stop offset="85.55555555555554%" stop-color="#94c4f7" stop-opacity="1"></stop></linearGradient></defs><defs><linearGradient id="grad1_2" x1="43.8%" y1="0%" x2="100%" y2="100%"><stop offset="14.444444444444446%" stop-color="#c7dcf6" stop-opacity="1"></stop><stop offset="85.55555555555554%" stop-color="#94c4f7" stop-opacity="1"></stop></linearGradient></defs><defs><linearGradient id="grad1_3" x1="43.8%" y1="0%" x2="100%" y2="100%"><stop offset="14.444444444444446%" stop-color="#c7dcf6" stop-opacity="1"></stop><stop offset="85.55555555555554%" stop-color="#f5f5f5" stop-opacity="1"></stop></linearGradient></defs><defs><linearGradient id="grad2_0" x1="0%" y1="0%" x2="56.3%" y2="100%"><stop offset="14.444444444444446%" stop-color="#4facf7" stop-opacity="1"></stop><stop offset="85.55555555555554%" stop-color="#4facf7" stop-opacity="1"></stop></linearGradient></defs><defs><linearGradient id="grad2_1" x1="0%" y1="0%" x2="56.3%" y2="100%"><stop offset="14.444444444444446%" stop-color="#94c4f7" stop-opacity="1"></stop><stop offset="85.55555555555554%" stop-color="#4facf7" stop-opacity="1"></stop></linearGradient></defs><defs><linearGradient id="grad2_2" x1="0%" y1="0%" x2="56.3%" y2="100%"><stop offset="14.444444444444446%" stop-color="#94c4f7" stop-opacity="1"></stop><stop offset="85.55555555555554%" stop-color="#c7dcf6" stop-opacity="1"></stop></linearGradient></defs><defs><linearGradient id="grad2_3" x1="0%" y1="0%" x2="56.3%" y2="100%"><stop offset="14.444444444444446%" stop-color="#f5f5f5" stop-opacity="1"></stop><stop offset="85.55555555555554%" stop-color="#c7dcf6" stop-opacity="1"></stop></linearGradient></defs><g transform="translate(1920, 0)"><path d="M0 864C-89.1 854.6 -178.2 845.1 -267 821.7C-355.8 798.3 -444.3 760.9 -506.7 697.4C-569.1 633.9 -605.4 544.3 -640.7 465.5C-676.1 386.7 -710.5 318.7 -747.5 242.9C-784.6 167.1 -824.3 83.5 -864 0L0 0Z" fill="#dfe8f6"></path><path d="M0 648C-66.8 640.9 -133.6 633.9 -200.2 616.3C-266.8 598.7 -333.2 570.6 -380 523C-426.8 475.4 -454 408.2 -480.6 349.1C-507.1 290 -532.9 239 -560.6 182.2C-588.4 125.3 -618.2 62.7 -648 0L0 0Z" fill="#afd0f7"></path><path d="M0 432C-44.5 427.3 -89.1 422.6 -133.5 410.9C-177.9 399.1 -222.1 380.4 -253.3 348.7C-284.5 316.9 -302.7 272.2 -320.4 232.8C-338 193.4 -355.2 159.3 -373.8 121.4C-392.3 83.5 -412.1 41.8 -432 0L0 0Z" fill="#76b8f7"></path><path d="M0 216C-22.3 213.6 -44.5 211.3 -66.7 205.4C-88.9 199.6 -111.1 190.2 -126.7 174.3C-142.3 158.5 -151.3 136.1 -160.2 116.4C-169 96.7 -177.6 79.7 -186.9 60.7C-196.1 41.8 -206.1 20.9 -216 0L0 0Z" fill="#4facf7"></path></g><g transform="translate(0, 1080)"><path d="M0 -864C92.1 -854.9 184.3 -845.8 261.7 -805.5C339.2 -765.3 402 -694 459.1 -631.8C516.1 -569.7 567.3 -516.6 633.5 -460.2C699.6 -403.9 780.8 -344.2 821.7 -267C862.6 -189.7 863.3 -94.9 864 0L0 0Z" fill="#dfe8f6"></path><path d="M0 -648C69.1 -641.2 138.2 -634.3 196.3 -604.2C254.4 -574 301.5 -520.5 344.3 -473.9C387.1 -427.2 425.5 -387.4 475.1 -345.2C524.7 -302.9 585.6 -258.2 616.3 -200.2C647 -142.3 647.5 -71.2 648 0L0 0Z" fill="#afd0f7"></path><path d="M0 -432C46.1 -427.4 92.1 -422.9 130.9 -402.8C169.6 -382.7 201 -347 229.5 -315.9C258 -284.8 283.6 -258.3 316.7 -230.1C349.8 -201.9 390.4 -172.1 410.9 -133.5C431.3 -94.9 431.7 -47.4 432 0L0 0Z" fill="#76b8f7"></path><path d="M0 -216C23 -213.7 46.1 -211.4 65.4 -201.4C84.8 -191.3 100.5 -173.5 114.8 -158C129 -142.4 141.8 -129.1 158.4 -115.1C174.9 -101 195.2 -86.1 205.4 -66.7C215.7 -47.4 215.8 -23.7 216 0L0 0Z" fill="#4facf7"></path></g></svg>