<svg id="visual" viewBox="0 0 810 1080" width="810" height="1080" xmlns="http://www.w3.org/2000/svg" xmlns:xlink="http://www.w3.org/1999/xlink" version="1.1"><rect x="0" y="0" width="810" height="1080" fill="#001122"></rect><defs><linearGradient id="grad1_0" x1="0%" y1="0%" x2="100%" y2="100%"><stop offset="30%" stop-color="#4facf7" stop-opacity="1"></stop><stop offset="70%" stop-color="#4facf7" stop-opacity="1"></stop></linearGradient></defs><defs><linearGradient id="grad1_1" x1="0%" y1="0%" x2="100%" y2="100%"><stop offset="30%" stop-color="#4facf7" stop-opacity="1"></stop><stop offset="70%" stop-color="#3473a9" stop-opacity="1"></stop></linearGradient></defs><defs><linearGradient id="grad1_2" x1="0%" y1="0%" x2="100%" y2="100%"><stop offset="30%" stop-color="#193f61" stop-opacity="1"></stop><stop offset="70%" stop-color="#3473a9" stop-opacity="1"></stop></linearGradient></defs><defs><linearGradient id="grad1_3" x1="0%" y1="0%" x2="100%" y2="100%"><stop offset="30%" stop-color="#193f61" stop-opacity="1"></stop><stop offset="70%" stop-color="#001122" stop-opacity="1"></stop></linearGradient></defs><defs><linearGradient id="grad2_0" x1="0%" y1="0%" x2="100%" y2="100%"><stop offset="30%" stop-color="#4facf7" stop-opacity="1"></stop><stop offset="70%" stop-color="#4facf7" stop-opacity="1"></stop></linearGradient></defs><defs><linearGradient id="grad2_1" x1="0%" y1="0%" x2="100%" y2="100%"><stop offset="30%" stop-color="#3473a9" stop-opacity="1"></stop><stop offset="70%" stop-color="#4facf7" stop-opacity="1"></stop></linearGradient></defs><defs><linearGradient id="grad2_2" x1="0%" y1="0%" x2="100%" y2="100%"><stop offset="30%" stop-color="#3473a9" stop-opacity="1"></stop><stop offset="70%" stop-color="#193f61" stop-opacity="1"></stop></linearGradient></defs><defs><linearGradient id="grad2_3" x1="0%" y1="0%" x2="100%" y2="100%"><stop offset="30%" stop-color="#001122" stop-opacity="1"></stop><stop offset="70%" stop-color="#193f61" stop-opacity="1"></stop></linearGradient></defs><g transform="translate(810, 0)"><path d="M0 540C-50.2 511 -100.5 482.1 -150.8 464.1C-201.1 446.2 -251.5 439.2 -304.5 419.1C-357.4 398.9 -412.9 365.5 -436.9 317.4C-460.8 269.3 -453.1 206.5 -465.1 151.1C-477 95.8 -508.5 47.9 -540 0L0 0Z" fill="#0c2840"></path><path d="M0 405C-37.7 383.3 -75.4 361.5 -113.1 348.1C-150.8 334.6 -188.6 329.4 -228.4 314.3C-268.1 299.2 -309.7 274.1 -327.7 238.1C-345.6 202 -339.9 154.8 -348.8 113.3C-357.7 71.8 -381.4 35.9 -405 0L0 0Z" fill="#275984"></path><path d="M0 270C-25.1 255.5 -50.2 241 -75.4 232.1C-100.6 223.1 -125.8 219.6 -152.2 209.5C-178.7 199.5 -206.5 182.8 -218.4 158.7C-230.4 134.6 -226.6 103.2 -232.5 75.6C-238.5 47.9 -254.2 23.9 -270 0L0 0Z" fill="#428fcf"></path><path d="M0 135C-12.6 127.8 -25.1 120.5 -37.7 116C-50.3 111.5 -62.9 109.8 -76.1 104.8C-89.4 99.7 -103.2 91.4 -109.2 79.4C-115.2 67.3 -113.3 51.6 -116.3 37.8C-119.2 23.9 -127.1 12 -135 0L0 0Z" fill="#4facf7"></path></g><g transform="translate(0, 1080)"><path d="M0 -540C58.6 -537.7 117.1 -535.4 166.9 -513.6C216.6 -491.7 257.5 -450.3 301.5 -415C345.6 -379.8 392.7 -350.6 425.5 -309.2C458.4 -267.7 476.9 -214 493.6 -160.4C510.3 -106.8 525.1 -53.4 540 0L0 0Z" fill="#0c2840"></path><path d="M0 -405C43.9 -403.3 87.9 -401.6 125.2 -385.2C162.5 -368.8 193.1 -337.7 226.2 -311.3C259.2 -284.8 294.5 -263 319.2 -231.9C343.8 -200.8 357.7 -160.5 370.2 -120.3C382.7 -80.1 393.9 -40 405 0L0 0Z" fill="#275984"></path><path d="M0 -270C29.3 -268.9 58.6 -267.7 83.4 -256.8C108.3 -245.9 128.8 -225.1 150.8 -207.5C172.8 -189.9 196.4 -175.3 212.8 -154.6C229.2 -133.9 238.5 -107 246.8 -80.2C255.1 -53.4 262.6 -26.7 270 0L0 0Z" fill="#428fcf"></path><path d="M0 -135C14.6 -134.4 29.3 -133.9 41.7 -128.4C54.2 -122.9 64.4 -112.6 75.4 -103.8C86.4 -94.9 98.2 -87.7 106.4 -77.3C114.6 -66.9 119.2 -53.5 123.4 -40.1C127.6 -26.7 131.3 -13.3 135 0L0 0Z" fill="#4facf7"></path></g></svg>