<svg id="visual" viewBox="0 0 450 900" width="450" height="900" xmlns="http://www.w3.org/2000/svg" xmlns:xlink="http://www.w3.org/1999/xlink" version="1.1"><rect x="0" y="0" width="450" height="900" fill="#001220"></rect><defs><linearGradient id="grad1_0" x1="0%" y1="0%" x2="100%" y2="100%"><stop offset="30%" stop-color="#4facf7" stop-opacity="1"></stop><stop offset="70%" stop-color="#4facf7" stop-opacity="1"></stop></linearGradient></defs><defs><linearGradient id="grad1_1" x1="0%" y1="0%" x2="100%" y2="100%"><stop offset="30%" stop-color="#4facf7" stop-opacity="1"></stop><stop offset="70%" stop-color="#3982bb" stop-opacity="1"></stop></linearGradient></defs><defs><linearGradient id="grad1_2" x1="0%" y1="0%" x2="100%" y2="100%"><stop offset="30%" stop-color="#245983" stop-opacity="1"></stop><stop offset="70%" stop-color="#3982bb" stop-opacity="1"></stop></linearGradient></defs><defs><linearGradient id="grad1_3" x1="0%" y1="0%" x2="100%" y2="100%"><stop offset="30%" stop-color="#245983" stop-opacity="1"></stop><stop offset="70%" stop-color="#11344f" stop-opacity="1"></stop></linearGradient></defs><defs><linearGradient id="grad1_4" x1="0%" y1="0%" x2="100%" y2="100%"><stop offset="30%" stop-color="#001220" stop-opacity="1"></stop><stop offset="70%" stop-color="#11344f" stop-opacity="1"></stop></linearGradient></defs><defs><linearGradient id="grad2_0" x1="0%" y1="0%" x2="100%" y2="100%"><stop offset="30%" stop-color="#4facf7" stop-opacity="1"></stop><stop offset="70%" stop-color="#4facf7" stop-opacity="1"></stop></linearGradient></defs><defs><linearGradient id="grad2_1" x1="0%" y1="0%" x2="100%" y2="100%"><stop offset="30%" stop-color="#3982bb" stop-opacity="1"></stop><stop offset="70%" stop-color="#4facf7" stop-opacity="1"></stop></linearGradient></defs><defs><linearGradient id="grad2_2" x1="0%" y1="0%" x2="100%" y2="100%"><stop offset="30%" stop-color="#3982bb" stop-opacity="1"></stop><stop offset="70%" stop-color="#245983" stop-opacity="1"></stop></linearGradient></defs><defs><linearGradient id="grad2_3" x1="0%" y1="0%" x2="100%" y2="100%"><stop offset="30%" stop-color="#11344f" stop-opacity="1"></stop><stop offset="70%" stop-color="#245983" stop-opacity="1"></stop></linearGradient></defs><defs><linearGradient id="grad2_4" x1="0%" y1="0%" x2="100%" y2="100%"><stop offset="30%" stop-color="#11344f" stop-opacity="1"></stop><stop offset="70%" stop-color="#001220" stop-opacity="1"></stop></linearGradient></defs><g transform="translate(450, 0)"><path d="M0 315C-37.2 301.6 -74.4 288.2 -114 275.3C-153.7 262.4 -195.8 250 -222.7 222.7C-249.7 195.4 -261.5 153.3 -274.4 113.7C-287.2 74.1 -301.1 37 -315 0L0 0Z" fill="#092336"></path><path d="M0 252C-29.8 241.3 -59.5 230.6 -91.2 220.3C-122.9 209.9 -156.6 200 -178.2 178.2C-199.8 156.4 -209.2 122.6 -219.5 90.9C-229.8 59.2 -240.9 29.6 -252 0L0 0Z" fill="#1a4668"></path><path d="M0 189C-22.3 181 -44.6 172.9 -68.4 165.2C-92.2 157.5 -117.5 150 -133.6 133.6C-149.8 117.3 -156.9 92 -164.6 68.2C-172.3 44.4 -180.7 22.2 -189 0L0 0Z" fill="#2e6d9f"></path><path d="M0 126C-14.9 120.6 -29.8 115.3 -45.6 110.1C-61.5 105 -78.3 100 -89.1 89.1C-99.9 78.2 -104.6 61.3 -109.8 45.5C-114.9 29.6 -120.4 14.8 -126 0L0 0Z" fill="#4496d9"></path><path d="M0 63C-7.4 60.3 -14.9 57.6 -22.8 55.1C-30.7 52.5 -39.2 50 -44.5 44.5C-49.9 39.1 -52.3 30.7 -54.9 22.7C-57.4 14.8 -60.2 7.4 -63 0L0 0Z" fill="#4facf7"></path></g><g transform="translate(0, 900)"><path d="M0 -315C43.7 -311.2 87.4 -307.4 118.6 -286.4C149.9 -265.4 168.7 -227 198.7 -198.7C228.7 -170.4 269.8 -152 291 -120.5C312.3 -89.1 313.6 -44.5 315 0L0 0Z" fill="#092336"></path><path d="M0 -252C34.9 -249 69.9 -246 94.9 -229.1C119.9 -212.3 135 -181.6 159 -159C182.9 -136.3 215.8 -121.6 232.8 -96.4C249.8 -71.3 250.9 -35.6 252 0L0 0Z" fill="#1a4668"></path><path d="M0 -189C26.2 -186.7 52.4 -184.5 71.2 -171.8C89.9 -159.2 101.2 -136.2 119.2 -119.2C137.2 -102.2 161.9 -91.2 174.6 -72.3C187.4 -53.5 188.2 -26.7 189 0L0 0Z" fill="#2e6d9f"></path><path d="M0 -126C17.5 -124.5 34.9 -123 47.5 -114.6C60 -106.1 67.5 -90.8 79.5 -79.5C91.5 -68.1 107.9 -60.8 116.4 -48.2C124.9 -35.6 125.5 -17.8 126 0L0 0Z" fill="#4496d9"></path><path d="M0 -63C8.7 -62.2 17.5 -61.5 23.7 -57.3C30 -53.1 33.7 -45.4 39.7 -39.7C45.7 -34.1 54 -30.4 58.2 -24.1C62.5 -17.8 62.7 -8.9 63 0L0 0Z" fill="#4facf7"></path></g></svg>