<svg id="visual" viewBox="0 0 1440 900" width="1440" height="900" xmlns="http://www.w3.org/2000/svg" xmlns:xlink="http://www.w3.org/1999/xlink" version="1.1"><rect x="0" y="0" width="1440" height="900" fill="#f5f5f5"></rect><defs><linearGradient id="grad1_0" x1="37.5%" y1="0%" x2="100%" y2="100%"><stop offset="17.999999999999996%" stop-color="#4facf7" stop-opacity="1"></stop><stop offset="82%" stop-color="#4facf7" stop-opacity="1"></stop></linearGradient></defs><defs><linearGradient id="grad1_1" x1="37.5%" y1="0%" x2="100%" y2="100%"><stop offset="17.999999999999996%" stop-color="#4facf7" stop-opacity="1"></stop><stop offset="82%" stop-color="#94c4f7" stop-opacity="1"></stop></linearGradient></defs><defs><linearGradient id="grad1_2" x1="37.5%" y1="0%" x2="100%" y2="100%"><stop offset="17.999999999999996%" stop-color="#c7dcf6" stop-opacity="1"></stop><stop offset="82%" stop-color="#94c4f7" stop-opacity="1"></stop></linearGradient></defs><defs><linearGradient id="grad1_3" x1="37.5%" y1="0%" x2="100%" y2="100%"><stop offset="17.999999999999996%" stop-color="#c7dcf6" stop-opacity="1"></stop><stop offset="82%" stop-color="#f5f5f5" stop-opacity="1"></stop></linearGradient></defs><defs><linearGradient id="grad2_0" x1="0%" y1="0%" x2="62.5%" y2="100%"><stop offset="17.999999999999996%" stop-color="#4facf7" stop-opacity="1"></stop><stop offset="82%" stop-color="#4facf7" stop-opacity="1"></stop></linearGradient></defs><defs><linearGradient id="grad2_1" x1="0%" y1="0%" x2="62.5%" y2="100%"><stop offset="17.999999999999996%" stop-color="#94c4f7" stop-opacity="1"></stop><stop offset="82%" stop-color="#4facf7" stop-opacity="1"></stop></linearGradient></defs><defs><linearGradient id="grad2_2" x1="0%" y1="0%" x2="62.5%" y2="100%"><stop offset="17.999999999999996%" stop-color="#94c4f7" stop-opacity="1"></stop><stop offset="82%" stop-color="#c7dcf6" stop-opacity="1"></stop></linearGradient></defs><defs><linearGradient id="grad2_3" x1="0%" y1="0%" x2="62.5%" y2="100%"><stop offset="17.999999999999996%" stop-color="#f5f5f5" stop-opacity="1"></stop><stop offset="82%" stop-color="#c7dcf6" stop-opacity="1"></stop></linearGradient></defs><g transform="translate(1440, 0)"><path d="M0 679.2C-61.6 645.8 -123.2 612.4 -194.1 597.3C-264.9 582.2 -345 585.4 -399.3 549.5C-453.5 513.7 -482 438.7 -517.8 376.2C-553.6 313.7 -596.7 263.6 -624.8 203C-653 142.4 -666.1 71.2 -679.2 0L0 0Z" fill="#dfe8f6"></path><path d="M0 509.4C-46.2 484.4 -92.4 459.3 -145.5 447.9C-198.7 436.6 -258.7 439 -299.4 412.1C-340.1 385.2 -361.5 329 -388.3 282.1C-415.2 235.3 -447.5 197.7 -468.6 152.3C-489.7 106.8 -499.6 53.4 -509.4 0L0 0Z" fill="#afd0f7"></path><path d="M0 339.6C-30.8 322.9 -61.6 306.2 -97 298.6C-132.5 291.1 -172.5 292.7 -199.6 274.8C-226.8 256.8 -241 219.3 -258.9 188.1C-276.8 156.8 -298.4 131.8 -312.4 101.5C-326.5 71.2 -333.1 35.6 -339.6 0L0 0Z" fill="#76b8f7"></path><path d="M0 169.8C-15.4 161.5 -30.8 153.1 -48.5 149.3C-66.2 145.5 -86.2 146.3 -99.8 137.4C-113.4 128.4 -120.5 109.7 -129.4 94C-138.4 78.4 -149.2 65.9 -156.2 50.8C-163.2 35.6 -166.5 17.8 -169.8 0L0 0Z" fill="#4facf7"></path></g><g transform="translate(0, 900)"><path d="M0 -679.2C76.9 -680.3 153.7 -681.3 209.9 -646C266.1 -610.7 301.5 -539 361.5 -497.5C421.5 -456.1 506 -444.9 547.7 -397.9C589.4 -351 588.2 -268.2 603 -195.9C617.7 -123.6 648.5 -61.8 679.2 0L0 0Z" fill="#dfe8f6"></path><path d="M0 -509.4C57.7 -510.2 115.3 -511 157.4 -484.5C199.5 -458 226.1 -404.2 271.1 -373.2C316.1 -342.1 379.5 -333.7 410.8 -298.4C442 -263.2 441.1 -201.2 452.2 -146.9C463.3 -92.7 486.4 -46.4 509.4 0L0 0Z" fill="#afd0f7"></path><path d="M0 -339.6C38.4 -340.1 76.9 -340.7 104.9 -323C133 -305.3 150.7 -269.5 180.7 -248.8C210.7 -228.1 253 -222.5 273.9 -199C294.7 -175.5 294.1 -134.1 301.5 -98C308.9 -61.8 324.2 -30.9 339.6 0L0 0Z" fill="#76b8f7"></path><path d="M0 -169.8C19.2 -170.1 38.4 -170.3 52.5 -161.5C66.5 -152.7 75.4 -134.7 90.4 -124.4C105.4 -114 126.5 -111.2 136.9 -99.5C147.3 -87.7 147 -67.1 150.7 -49C154.4 -30.9 162.1 -15.5 169.8 0L0 0Z" fill="#4facf7"></path></g></svg>