<svg id="visual" viewBox="0 0 540 960" width="540" height="960" xmlns="http://www.w3.org/2000/svg" xmlns:xlink="http://www.w3.org/1999/xlink" version="1.1"><rect x="0" y="0" width="540" height="960" fill="#001122"></rect><defs><linearGradient id="grad1_0" x1="0%" y1="0%" x2="100%" y2="100%"><stop offset="30%" stop-color="#0891b2" stop-opacity="1"></stop><stop offset="70%" stop-color="#0891b2" stop-opacity="1"></stop></linearGradient></defs><defs><linearGradient id="grad1_1" x1="0%" y1="0%" x2="100%" y2="100%"><stop offset="30%" stop-color="#0891b2" stop-opacity="1"></stop><stop offset="70%" stop-color="#106281" stop-opacity="1"></stop></linearGradient></defs><defs><linearGradient id="grad1_2" x1="0%" y1="0%" x2="100%" y2="100%"><stop offset="30%" stop-color="#0d3750" stop-opacity="1"></stop><stop offset="70%" stop-color="#106281" stop-opacity="1"></stop></linearGradient></defs><defs><linearGradient id="grad1_3" x1="0%" y1="0%" x2="100%" y2="100%"><stop offset="30%" stop-color="#0d3750" stop-opacity="1"></stop><stop offset="70%" stop-color="#001122" stop-opacity="1"></stop></linearGradient></defs><defs><linearGradient id="grad2_0" x1="0%" y1="0%" x2="100%" y2="100%"><stop offset="30%" stop-color="#0891b2" stop-opacity="1"></stop><stop offset="70%" stop-color="#0891b2" stop-opacity="1"></stop></linearGradient></defs><defs><linearGradient id="grad2_1" x1="0%" y1="0%" x2="100%" y2="100%"><stop offset="30%" stop-color="#106281" stop-opacity="1"></stop><stop offset="70%" stop-color="#0891b2" stop-opacity="1"></stop></linearGradient></defs><defs><linearGradient id="grad2_2" x1="0%" y1="0%" x2="100%" y2="100%"><stop offset="30%" stop-color="#106281" stop-opacity="1"></stop><stop offset="70%" stop-color="#0d3750" stop-opacity="1"></stop></linearGradient></defs><defs><linearGradient id="grad2_3" x1="0%" y1="0%" x2="100%" y2="100%"><stop offset="30%" stop-color="#001122" stop-opacity="1"></stop><stop offset="70%" stop-color="#0d3750" stop-opacity="1"></stop></linearGradient></defs><g transform="translate(540, 0)"><path d="M0 297C-59.1 293.4 -118.3 289.8 -148.5 257.2C-178.7 224.7 -180.1 163.2 -200.1 115.5C-220 67.8 -258.5 33.9 -297 0L0 0Z" fill="#072439"></path><path d="M0 222.8C-44.3 220 -88.7 217.3 -111.4 192.9C-134.1 168.5 -135.1 122.4 -150 86.6C-165 50.9 -193.9 25.4 -222.7 0L0 0Z" fill="#104c69"></path><path d="M0 148.5C-29.6 146.7 -59.1 144.9 -74.2 128.6C-89.4 112.3 -90.1 81.6 -100 57.8C-110 33.9 -129.2 17 -148.5 0L0 0Z" fill="#0e799a"></path><path d="M0 74.3C-14.8 73.3 -29.6 72.4 -37.1 64.3C-44.7 56.2 -45 40.8 -50 28.9C-55 17 -64.6 8.5 -74.2 0L0 0Z" fill="#0891b2"></path></g><g transform="translate(0, 960)"><path d="M0 -297C56.2 -291.7 112.5 -286.4 148.5 -257.2C184.5 -228 200.3 -174.9 221.7 -128C243.1 -81.1 270 -40.6 297 0L0 0Z" fill="#072439"></path><path d="M0 -222.7C42.2 -218.8 84.4 -214.8 111.4 -192.9C138.4 -171 150.2 -131.1 166.3 -96C182.3 -60.9 202.5 -30.4 222.8 0L0 0Z" fill="#104c69"></path><path d="M0 -148.5C28.1 -145.9 56.2 -143.2 74.2 -128.6C92.3 -114 100.2 -87.4 110.9 -64C121.5 -40.6 135 -20.3 148.5 0L0 0Z" fill="#0e799a"></path><path d="M0 -74.2C14.1 -72.9 28.1 -71.6 37.1 -64.3C46.1 -57 50.1 -43.7 55.4 -32C60.8 -20.3 67.5 -10.1 74.3 0L0 0Z" fill="#0891b2"></path></g></svg>