<svg id="visual" viewBox="0 0 1920 1080" width="1920" height="1080" xmlns="http://www.w3.org/2000/svg" xmlns:xlink="http://www.w3.org/1999/xlink" version="1.1"><rect x="0" y="0" width="1920" height="1080" fill="#001122"></rect><defs><linearGradient id="grad1_0" x1="43.8%" y1="0%" x2="100%" y2="100%"><stop offset="14.444444444444446%" stop-color="#4facf7" stop-opacity="1"></stop><stop offset="85.55555555555554%" stop-color="#4facf7" stop-opacity="1"></stop></linearGradient></defs><defs><linearGradient id="grad1_1" x1="43.8%" y1="0%" x2="100%" y2="100%"><stop offset="14.444444444444446%" stop-color="#4facf7" stop-opacity="1"></stop><stop offset="85.55555555555554%" stop-color="#3473a9" stop-opacity="1"></stop></linearGradient></defs><defs><linearGradient id="grad1_2" x1="43.8%" y1="0%" x2="100%" y2="100%"><stop offset="14.444444444444446%" stop-color="#193f61" stop-opacity="1"></stop><stop offset="85.55555555555554%" stop-color="#3473a9" stop-opacity="1"></stop></linearGradient></defs><defs><linearGradient id="grad1_3" x1="43.8%" y1="0%" x2="100%" y2="100%"><stop offset="14.444444444444446%" stop-color="#193f61" stop-opacity="1"></stop><stop offset="85.55555555555554%" stop-color="#001122" stop-opacity="1"></stop></linearGradient></defs><defs><linearGradient id="grad2_0" x1="0%" y1="0%" x2="56.3%" y2="100%"><stop offset="14.444444444444446%" stop-color="#4facf7" stop-opacity="1"></stop><stop offset="85.55555555555554%" stop-color="#4facf7" stop-opacity="1"></stop></linearGradient></defs><defs><linearGradient id="grad2_1" x1="0%" y1="0%" x2="56.3%" y2="100%"><stop offset="14.444444444444446%" stop-color="#3473a9" stop-opacity="1"></stop><stop offset="85.55555555555554%" stop-color="#4facf7" stop-opacity="1"></stop></linearGradient></defs><defs><linearGradient id="grad2_2" x1="0%" y1="0%" x2="56.3%" y2="100%"><stop offset="14.444444444444446%" stop-color="#3473a9" stop-opacity="1"></stop><stop offset="85.55555555555554%" stop-color="#193f61" stop-opacity="1"></stop></linearGradient></defs><defs><linearGradient id="grad2_3" x1="0%" y1="0%" x2="56.3%" y2="100%"><stop offset="14.444444444444446%" stop-color="#001122" stop-opacity="1"></stop><stop offset="85.55555555555554%" stop-color="#193f61" stop-opacity="1"></stop></linearGradient></defs><g transform="translate(1920, 0)"><path d="M0 864C-83.4 828.1 -166.8 792.2 -247.8 762.7C-328.9 733.3 -407.7 710.3 -488.4 672.3C-569.2 634.3 -652 581.1 -699 507.8C-746 434.6 -757.4 341.1 -778.9 253.1C-800.5 165.1 -832.2 82.5 -864 0L0 0Z" fill="#0c2840"></path><path d="M0 648C-62.5 621.1 -125.1 594.1 -185.9 572.1C-246.7 550 -305.8 532.8 -366.3 504.2C-426.9 475.7 -489 435.9 -524.2 380.9C-559.5 325.9 -568 255.8 -584.2 189.8C-600.3 123.8 -624.2 61.9 -648 0L0 0Z" fill="#275984"></path><path d="M0 432C-41.7 414 -83.4 396.1 -123.9 381.4C-164.5 366.7 -203.8 355.2 -244.2 336.1C-284.6 317.1 -326 290.6 -349.5 253.9C-373 217.3 -378.7 170.5 -389.5 126.5C-400.2 82.5 -416.1 41.3 -432 0L0 0Z" fill="#428fcf"></path><path d="M0 216C-20.8 207 -41.7 198 -62 190.7C-82.2 183.3 -101.9 177.6 -122.1 168.1C-142.3 158.6 -163 145.3 -174.7 127C-186.5 108.6 -189.3 85.3 -194.7 63.3C-200.1 41.3 -208.1 20.6 -216 0L0 0Z" fill="#4facf7"></path></g><g transform="translate(0, 1080)"><path d="M0 -864C85.8 -845.1 171.7 -826.2 261.4 -804.6C351.2 -783 444.8 -758.7 507.8 -699C570.8 -639.2 603.2 -544 638.3 -463.8C673.4 -383.5 711.4 -318.3 749.4 -243.5C787.5 -168.7 825.8 -84.4 864 0L0 0Z" fill="#0c2840"></path><path d="M0 -648C64.4 -633.8 128.8 -619.6 196.1 -603.4C263.4 -587.3 333.6 -569.1 380.9 -524.2C428.1 -479.4 452.4 -408 478.7 -347.8C505.1 -287.6 533.5 -238.7 562.1 -182.6C590.6 -126.5 619.3 -63.3 648 0L0 0Z" fill="#275984"></path><path d="M0 -432C42.9 -422.5 85.8 -413.1 130.7 -402.3C175.6 -391.5 222.4 -379.4 253.9 -349.5C285.4 -319.6 301.6 -272 319.2 -231.9C336.7 -191.8 355.7 -159.1 374.7 -121.8C393.8 -84.4 412.9 -42.2 432 0L0 0Z" fill="#428fcf"></path><path d="M0 -216C21.5 -211.3 42.9 -206.5 65.4 -201.1C87.8 -195.8 111.2 -189.7 127 -174.7C142.7 -159.8 150.8 -136 159.6 -115.9C168.4 -95.9 177.8 -79.6 187.4 -60.9C196.9 -42.2 206.4 -21.1 216 0L0 0Z" fill="#4facf7"></path></g></svg>